<svg xmlns="http://www.w3.org/2000/svg" viewBox="0 0 1200 700" width="1200" height="700" xmlns:c2pa="http://c2pa.org/manifest"><metadata><c2pa:manifest>AAAWgmp1bWIAAAAeanVtZGMycGEAEQAQgAAAqgA4m3EDYzJwYQAAABZcanVtYgAAAEdqdW1kYzJtYQARABCAAACqADibcQN1cm46YzJwYToxOTBiZmUyMC1lZDAwLTRkY2MtYjRkYi04NWJhN2RiZDViNzIAAAADl2p1bWIAAAApanVtZGMyYXMAEQAQgAAAqgA4m3EDYzJwYS5hc3NlcnRpb25zAAAAALxqdW1iAAAARGp1bWRjYm9yABEAEIAAAKoAOJtxE2MycGEuaW5ncmVkaWVudC52MwAAAAAYYzJzaP7Yh7sVAcsW+J221OGE4jAAAABwY2JvcqNpZGM6Zm9ybWF0bWltYWdlL3N2Zyt4bWxqaW5zdGFuY2VJRHgseG1wOmlpZDo4ODc2MmJjMi1kNmU0LTRhNzctYTA4NC0wNzU3YThiMGNlYmRscmVsYXRpb25zaGlwaHBhcmVudE9mAAAB4mp1bWIAAABBanVtZGNib3IAEQAQgAAAqgA4m3ETYzJwYS5hY3Rpb25zLnYyAAAAABhjMnNoXkAGSGVbPGOoiK8rrp05nQAAAZljYm9yomdhY3Rpb25zgqJmYWN0aW9ua2MycGEub3BlbmVkanBhcmFtZXRlcnOha2luZ3JlZGllbnRzgaJjdXJseC1zZWxmI2p1bWJmPWMycGEuYXNzZXJ0aW9ucy9jMnBhLmluZ3JlZGllbnQudjNkaGFzaFggILAmCoPeKDGvLRPgqIfRr9082TNu8r8OQt81TK2IcqKkZmFjdGlvbngdY29tLmFudGhyb3BpYy5jbGF1ZGUucHJvdmlkZWRqcGFyYW1ldGVyc6F4H2NvbS5hbnRocm9waWMub3JpZ2luLWNvbmZpZGVuY2VndW5rbm93bmtkZXNjcmlwdGlvbnhmQ2xhdWRlIHByb3ZpZGVkIHRoaXMgZmlsZSBhdCB0aGUgcmVxdWVzdCBvZiBhIHVzZXIgYW5kIG1heSBoYXZlIGNyZWF0ZWQgb3IgbW9kaWZpZWQgdGhlIGZpbGUgY29udGVudHMubXNvZnR3YXJlQWdlbnShZG5hbWVmQ2xhdWRlcmFsbEFjdGlvbnNJbmNsdWRlZPUAAADIanVtYgAAAEBqdW1kY2JvcgARABCAAACqADibcRNjMnBhLmhhc2guZGF0YQAAAAAYYzJzaL4FskenS02IvTMBBRELBWIAAACAY2JvcqVjYWxnZnNoYTI1NmNwYWRNAAAAAAAAAAAAAAAAAGRoYXNoWCDseV4MOWU5JqqeVvfVBSzxl2OYen2aqdaYBQWRHHTWZmRuYW1lbmp1bWJmIG1hbmlmZXN0amV4Y2x1c2lvbnOBomVzdGFydBiYZmxlbmd0aBkeBAAAAj5qdW1iAAAAJ2p1bWRjMmNsABEAEIAAAKoAOJtxA2MycGEuY2xhaW0udjIAAAACD2Nib3KlY2FsZ2ZzaGEyNTZpc2lnbmF0dXJleE1zZWxmI2p1bWJmPS9jMnBhL3VybjpjMnBhOjE5MGJmZTIwLWVkMDAtNGRjYy1iNGRiLTg1YmE3ZGJkNWI3Mi9jMnBhLnNpZ25hdHVyZWppbnN0YW5jZUlEeCx4bXA6aWlkOmZhOTI4Y2FjLTkyNDAtNGZkZS04NWIwLThiMzQxZDNlOTc2MXJjcmVhdGVkX2Fzc2VydGlvbnODomN1cmx4LXNlbGYjanVtYmY9YzJwYS5hc3NlcnRpb25zL2MycGEuaW5ncmVkaWVudC52M2RoYXNoWCAgsCYKg94oMa8tE+Coh9Gv3TzZM27yvw5C3zVMrYhyoqJjdXJseCpzZWxmI2p1bWJmPWMycGEuYXNzZXJ0aW9ucy9jMnBhLmFjdGlvbnMudjJkaGFzaFggSj2w/YOBrDXgrrx4OQjErMfd2Yx923yJAHaMSg3cbcqiY3VybHgpc2VsZiNqdW1iZj1jMnBhLmFzc2VydGlvbnMvYzJwYS5oYXNoLmRhdGFkaGFzaFgga7lnCWr1jDhhe38NrtcShdbK2qyvbw+6JrbobMIAGV50Y2xhaW1fZ2VuZXJhdG9yX2luZm+jZG5hbWVvQW50aHJvcGljIEZpbGVzZ3ZlcnNpb25lMS4wLjBrc3BlY1ZlcnNpb25lMi40LjAAABA4anVtYgAAAChqdW1kYzJjcwARABCAAACqADibcQNjMnBhLnNpZ25hdHVyZQAAABAIY2JvctKEWQISogEmGCFZAgowggIGMIIBjaADAgECAhRA5aAK7sI50L64g/oGQgU9Z1UTADAKBggqhkjOPQQDAzBJMRcwFQYDVQQKEw5BbnRocm9waWMsIFBCQzEuMCwGA1UEAxMlQW50aHJvcGljIENvbnRlbnQgQ3JlZGVudGlhbHMgUm9vdCBDQTAeFw0yNjA4MDcxODQzNTZaFw0yODA4MDYxOTQzNTZaMEQxFzAVBgNVBAoTDkFudGhyb3BpYywgUEJDMSkwJwYDVQQDEyBBbnRocm9waWMgQ2xhdWRlIENvbnRlbnQgU2lnbmluZzBZMBMGByqGSM49AgEGCCqGSM49AwEHA0IABJh6CmvLUBgFFNU0vUKlOVtE6djd17L5SuwX0LemFisBM3dkd/3cyjxFA3Qo5S46fX0/ihY0VZ7mfb9KF703t5OjWDBWMA4GA1UdDwEB/wQEAwIHgDAVBgNVHSUEDjAMBgorBgEEAYPoXgIBMAwGA1UdEwEB/wQCMAAwHwYDVR0jBBgwFoAUzlHiBIFOZFsj+OPEz5o+nMHXXMIwCgYIKoZIzj0EAwMDZwAwZAIwMXMdFJ4BetLLVY7ORuE9noqbbAZOZn/aArXyTwFAZfKrPzxF2vPoJNf1+UCdg1XGAjBwX1zd9WGqYkqmL5SFqw1QySjr1zJfpJM9+1rdDwSPLMOPOjKuiXjoU/pUUeG9RwmhY3BhZFkNngAAAAAAAAAAAAAAAAAAAAAAAAAAAAAAAAAAAAAAAAAAAAAAAAAAAAAAAAAAAAAAAAAAAAAAAAAAAAAAAAAAAAAAAAAAAAAAAAAAAAAAAAAAAAAAAAAAAAAAAAAAAAAAAAAAAAAAAAAAAAAAAAAAAAAAAAAAAAAAAAAAAAAAAAAAAAAAAAAAAAAAAAAAAAAAAAAAAAAAAAAAAAAAAAAAAAAAAAAAAAAAAAAAAAAAAAAAAAAAAAAAAAAAAAAAAAAAAAAAAAAAAAAAAAAAAAAAAAAAAAAAAAAAAAAAAAAAAAAAAAAAAAAAAAAAAAAAAAAAAAAAAAAAAAAAAAAAAAAAAAAAAAAAAAAAAAAAAAAAAAAAAAAAAAAAAAAAAAAAAAAAAAAAAAAAAAAAAAAAAAAAAAAAAAAAAAAAAAAAAAAAAAAAAAAAAAAAAAAAAAAAAAAAAAAAAAAAAAAAAAAAAAAAAAAAAAAAAAAAAAAAAAAAAAAAAAAAAAAAAAAAAAAAAAAAAAAAAAAAAAAAAAAAAAAAAAAAAAAAAAAAAAAAAAAAAAAAAAAAAAAAAAAAAAAAAAAAAAAAAAAAAAAAAAAAAAAAAAAAAAAAAAAAAAAAAAAAAAAAAAAAAAAAAAAAAAAAAAAAAAAAAAAAAAAAAAAAAAAAAAAAAAAAAAAAAAAAAAAAAAAAAAAAAAAAAAAAAAAAAAAAAAAAAAAAAAAAAAAAAAAAAAAAAAAAAAAAAAAAAAAAAAAAAAAAAAAAAAAAAAAAAAAAAAAAAAAAAAAAAAAAAAAAAAAAAAAAAAAAAAAAAAAAAAAAAAAAAAAAAAAAAAAAAAAAAAAAAAAAAAAAAAAAAAAAAAAAAAAAAAAAAAAAAAAAAAAAAAAAAAAAAAAAAAAAAAAAAAAAAAAAAAAAAAAAAAAAAAAAAAAAAAAAAAAAAAAAAAAAAAAAAAAAAAAAAAAAAAAAAAAAAAAAAAAAAAAAAAAAAAAAAAAAAAAAAAAAAAAAAAAAAAAAAAAAAAAAAAAAAAAAAAAAAAAAAAAAAAAAAAAAAAAAAAAAAAAAAAAAAAAAAAAAAAAAAAAAAAAAAAAAAAAAAAAAAAAAAAAAAAAAAAAAAAAAAAAAAAAAAAAAAAAAAAAAAAAAAAAAAAAAAAAAAAAAAAAAAAAAAAAAAAAAAAAAAAAAAAAAAAAAAAAAAAAAAAAAAAAAAAAAAAAAAAAAAAAAAAAAAAAAAAAAAAAAAAAAAAAAAAAAAAAAAAAAAAAAAAAAAAAAAAAAAAAAAAAAAAAAAAAAAAAAAAAAAAAAAAAAAAAAAAAAAAAAAAAAAAAAAAAAAAAAAAAAAAAAAAAAAAAAAAAAAAAAAAAAAAAAAAAAAAAAAAAAAAAAAAAAAAAAAAAAAAAAAAAAAAAAAAAAAAAAAAAAAAAAAAAAAAAAAAAAAAAAAAAAAAAAAAAAAAAAAAAAAAAAAAAAAAAAAAAAAAAAAAAAAAAAAAAAAAAAAAAAAAAAAAAAAAAAAAAAAAAAAAAAAAAAAAAAAAAAAAAAAAAAAAAAAAAAAAAAAAAAAAAAAAAAAAAAAAAAAAAAAAAAAAAAAAAAAAAAAAAAAAAAAAAAAAAAAAAAAAAAAAAAAAAAAAAAAAAAAAAAAAAAAAAAAAAAAAAAAAAAAAAAAAAAAAAAAAAAAAAAAAAAAAAAAAAAAAAAAAAAAAAAAAAAAAAAAAAAAAAAAAAAAAAAAAAAAAAAAAAAAAAAAAAAAAAAAAAAAAAAAAAAAAAAAAAAAAAAAAAAAAAAAAAAAAAAAAAAAAAAAAAAAAAAAAAAAAAAAAAAAAAAAAAAAAAAAAAAAAAAAAAAAAAAAAAAAAAAAAAAAAAAAAAAAAAAAAAAAAAAAAAAAAAAAAAAAAAAAAAAAAAAAAAAAAAAAAAAAAAAAAAAAAAAAAAAAAAAAAAAAAAAAAAAAAAAAAAAAAAAAAAAAAAAAAAAAAAAAAAAAAAAAAAAAAAAAAAAAAAAAAAAAAAAAAAAAAAAAAAAAAAAAAAAAAAAAAAAAAAAAAAAAAAAAAAAAAAAAAAAAAAAAAAAAAAAAAAAAAAAAAAAAAAAAAAAAAAAAAAAAAAAAAAAAAAAAAAAAAAAAAAAAAAAAAAAAAAAAAAAAAAAAAAAAAAAAAAAAAAAAAAAAAAAAAAAAAAAAAAAAAAAAAAAAAAAAAAAAAAAAAAAAAAAAAAAAAAAAAAAAAAAAAAAAAAAAAAAAAAAAAAAAAAAAAAAAAAAAAAAAAAAAAAAAAAAAAAAAAAAAAAAAAAAAAAAAAAAAAAAAAAAAAAAAAAAAAAAAAAAAAAAAAAAAAAAAAAAAAAAAAAAAAAAAAAAAAAAAAAAAAAAAAAAAAAAAAAAAAAAAAAAAAAAAAAAAAAAAAAAAAAAAAAAAAAAAAAAAAAAAAAAAAAAAAAAAAAAAAAAAAAAAAAAAAAAAAAAAAAAAAAAAAAAAAAAAAAAAAAAAAAAAAAAAAAAAAAAAAAAAAAAAAAAAAAAAAAAAAAAAAAAAAAAAAAAAAAAAAAAAAAAAAAAAAAAAAAAAAAAAAAAAAAAAAAAAAAAAAAAAAAAAAAAAAAAAAAAAAAAAAAAAAAAAAAAAAAAAAAAAAAAAAAAAAAAAAAAAAAAAAAAAAAAAAAAAAAAAAAAAAAAAAAAAAAAAAAAAAAAAAAAAAAAAAAAAAAAAAAAAAAAAAAAAAAAAAAAAAAAAAAAAAAAAAAAAAAAAAAAAAAAAAAAAAAAAAAAAAAAAAAAAAAAAAAAAAAAAAAAAAAAAAAAAAAAAAAAAAAAAAAAAAAAAAAAAAAAAAAAAAAAAAAAAAAAAAAAAAAAAAAAAAAAAAAAAAAAAAAAAAAAAAAAAAAAAAAAAAAAAAAAAAAAAAAAAAAAAAAAAAAAAAAAAAAAAAAAAAAAAAAAAAAAAAAAAAAAAAAAAAAAAAAAAAAAAAAAAAAAAAAAAAAAAAAAAAAAAAAAAAAAAAAAAAAAAAAAAAAAAAAAAAAAAAAAAAAAAAAAAAAAAAAAAAAAAAAAAAAAAAAAAAAAAAAAAAAAAAAAAAAAAAAAAAAAAAAAAAAAAAAAAAAAAAAAAAAAAAAAAAAAAAAAAAAAAAAAAAAAAAAAAAAAAAAAAAAAAAAAAAAAAAAAAAAAAAAAAAAAAAAAAAAAAAAAAAAAAAAAAAAAAAAAAAAAAAAAAAAAAAAAAAAAAAAAAAAAAAAAAAAAAAAAAAAAAAAAAAAAAAAAAAAAAAAAAAAAAAAAAAAAAAAAAAAAAAAAAAAAAAAAAAAAAAAAAAAAAAAAAAAAAAAAAAAAAAAAAAAAAAAAAAAAAAAAAAAAAAAAAAAAAAAAAAAAAAAAAAAAAAAAAAAAAAAAAAAAAAAAAAAAAAAAAAAAAAAAAAAAAAAAAAAAAAAAAAAAAAAAAAAAAAAAAAAAAAAAAAAAAAAAAAAAAAAAAAAAAAAAAAAAAAAAAAAAAAAAAAAAAAAAAAAAAAAAAAAAAAAAAAAAAAAAAAAAAAAAAAAAAAAAAAAAAAAAAAAAAAAAAAAAAAAAAAAAAAAAAAAAAAAAAAAAAAAAAAAAAAAAAAAAAAAAAAAAAAAAAAAAAAAAAAAAAAAAAAAAAAAAAAAAAAAAAAAAAAAAAAAAAAAAAAAAAAAAAAAAAAAAAAAAAAAAAAAAAAAAAAAAAAAAAAAAAAAAAAAAAAAAAAAAAAAAAAAAAAAAAAAAAAAAAAAAAAAAAAAAAAAAAAAAAAAAAAAAAAAAAAAAAAAAAAAAAAAAAAAAAAAAAAAAAAAAAAAAAAAAAAAAAAAAAAAAAAAAAAAAAAAAAAAAAAAAAAAAAAAAAAAAAAAAAAAAAAAAAAAAAAAAAAAAAAAAAAAAAAAAAAAAAAAAAAAAAAAAAAAAAAAAAAAAAAAAAAAAAAAAAAAAAAAAAAAAAAAAAAAAAAAAAAAAAAAAAAAAAAAAAAAAAAAAAAAAAAAAAAAAAAAAAAAAAAAAAAAAAAAAAAAAAAAAAAAAAAAAAAAAAAAAAAAAAAAAAAAAAAAAAAAAAAAAAAAAAAAAAAAAAAAAAAAAAAAAAAAAAAAAAAAAAAAAAAAAAAAAAAAAAAAAAAAAAAAAAAAAAAAAAAAAAAAAAAAAAAAAAAAAAAAAAAAAAAAAAAAAAAAAAAAAAAAAAAAAAAAAAAAAAAAAAAAAAAAAAAAAAAAAAAAAAAAAAAAAAAAAAAAAAAAAAAAAAAAAAAAAAAAAAAAAAAAAAAAAAAAAAAAAAAAAAAAAAAAAAAAAAAAAAAAAAAAAAAAAAAAAAAAAAAAAAAAAAAAAAAAAAAAAAAAAAAAAAAAAAAAAAAAAAAAAAAAAAAAAAAAAAAAAAAAAAAAAAAAAAAAAAAAAAAAAAAAAAAAAAAAAAAAAAAAAAAAAAAAAAAAAAAAAAAAAAAAAAAAAAAAAAAAAAAAAAAAAAAAAAAAAAAAAAAAAAAAAAAAAAAAAAAAAAAAAAAAAAAAAAAAAAAAAAAAAAAAAAAAAAAAAAAAAAAAAAAAAAAAAAAAAAAAAAAAAAAAAAAAAAAAAAAAAAAAAAAAAAAAAAAAAAAAAAAAAAAAAAAAAAAAAAAAAAAAAAAAAAAAAAAAAAAAAAAAAAAAAAAAAAAAAAAAAAAAAAAAAAAAAAAAAAAAAAPZYQKrwpH7s474UldmBREpWiceFadugE2ItfZNBphQ8bwIMq7nbOM9NrtyBwpFT2RWAmEs+W+LAQ7okx6Jjs1OujzQ=</c2pa:manifest></metadata>
  <defs>
    <path id="spark" d="M0 -1 C0.12 -0.3 0.3 -0.12 1 0 C0.3 0.12 0.12 0.3 0 1 C-0.12 0.3 -0.3 0.12 -1 0 C-0.3 -0.12 -0.12 -0.3 0 -1Z"/>
    <path id="heart" d="M0 8 C-16 -4 -9 -16 0 -7 C9 -16 16 -4 0 8Z"/>
  </defs>
  <rect width="1200" height="700" rx="48" fill="#f7f8fc"/>

  <!-- wordmark -->
  <path d="M150.7 463.6Q139.3 463.6 131.3 460.7Q123.4 457.9 118.3 454.1Q113.3 450.3 110.7 447.1Q108.0 443.9 107.5 443.2Q103.7 438.5 102.9 434.8Q102.1 431.0 104.0 427.3Q106.0 423.5 110.7 419.0Q115.0 414.9 119.1 414.5Q123.2 414.0 127.2 416.2Q131.2 418.5 135.0 422.8Q139.5 427.8 142.6 429.6Q145.8 431.4 149.9 431.4Q155.0 431.4 158.2 430.2Q161.3 429.0 162.8 426.4Q164.3 423.9 164.3 420.0Q164.3 416.8 161.1 415.0Q158.0 413.2 152.8 411.9Q147.7 410.6 141.3 409.0Q135.0 407.5 128.8 404.8Q125.1 403.3 121.5 401.1Q118.0 398.9 114.9 396.0Q111.8 393.1 109.5 389.0Q107.3 385.0 106.1 380.0Q104.9 374.9 104.9 368.6Q104.9 357.1 110.6 348.2Q116.3 339.2 126.3 334.0Q136.3 328.7 149.0 328.7Q158.2 328.7 164.7 330.2Q171.2 331.7 175.5 333.8Q179.7 335.8 181.9 337.6Q184.2 339.4 184.7 339.9Q190.9 345.6 191.4 349.6Q192.0 353.6 187.0 361.1Q181.3 369.1 175.9 370.1Q170.5 371.2 163.4 366.7Q161.9 365.6 160.4 364.2Q158.9 362.8 156.4 361.7Q153.9 360.7 148.8 360.7Q146.9 360.7 145.1 361.4Q143.2 362.0 141.9 363.0Q140.6 364.1 139.7 365.6Q138.9 367.1 138.9 368.7Q138.9 372.7 141.9 374.8Q144.9 377.0 149.8 378.1Q154.8 379.2 160.8 380.3Q166.8 381.5 172.9 383.3Q178.0 385.0 182.7 387.6Q187.3 390.2 190.9 394.4Q194.4 398.5 196.6 404.6Q198.7 410.6 198.7 419.4Q198.7 431.6 194.1 440.1Q189.4 448.6 182.0 453.7Q174.6 458.9 166.3 461.2Q158.0 463.6 150.7 463.6Z M257.8 461.7Q247.9 461.7 240.6 459.4Q233.3 457.2 228.6 452.5Q223.8 447.8 221.5 440.7Q219.1 433.6 219.1 424.1L219.1 351.5Q219.1 347.2 219.9 343.6Q220.6 339.9 224.2 337.6Q227.7 335.3 236.1 335.3Q244.4 335.3 247.9 337.8Q251.5 340.3 252.2 344.2Q253.0 348.2 253.0 352.3L253.0 422.4Q253.0 424.5 253.2 425.9Q253.5 427.3 254.1 428.0Q254.6 428.8 255.6 429.1Q256.5 429.5 258.0 429.5Q262.9 429.5 266.7 430.3Q270.5 431.0 272.7 434.2Q274.8 437.4 274.8 444.9Q274.8 453.3 272.2 456.8Q269.6 460.4 265.7 461.0Q261.8 461.7 257.8 461.7Z M215.2 367.8L237.1 367.8L262.9 366.9Q267.0 366.9 270.8 367.6Q274.7 368.4 277.2 371.9Q279.7 375.5 279.7 384.1Q279.7 391.9 277.2 395.5Q274.7 399.0 270.8 400.0Q267.0 400.9 262.7 400.9L238.9 400.3L214.4 400.3Q208.1 400.0 205.7 396.2Q203.2 392.5 203.2 383.9Q203.2 375.9 206.2 371.8Q209.2 367.8 215.2 367.8Z M329.6 461.3Q320.7 461.3 312.9 457.8Q305.1 454.2 299.3 447.8Q293.5 441.3 290.4 432.7Q287.2 424.1 287.2 414.0L287.2 383.5Q287.2 379.2 287.9 375.4Q288.7 371.5 292.2 369.0Q295.8 366.5 304.2 366.5Q312.8 366.5 316.3 369.0Q319.7 371.5 320.5 375.5Q321.2 379.4 321.2 383.7L321.2 414.0Q321.2 418.3 322.8 421.3Q324.4 424.3 327.5 425.9Q330.6 427.5 334.7 427.5Q338.8 427.5 341.8 425.8Q344.8 424.1 346.5 421.1Q348.1 418.1 348.1 414.0L348.1 383.3Q348.1 379.0 348.9 375.2Q349.6 371.4 353.2 368.9Q356.8 366.5 365.2 366.5Q373.8 366.5 377.2 369.0Q380.7 371.5 381.4 375.5Q382.2 379.4 382.2 383.5L382.2 445.0Q382.2 449.2 381.4 452.9Q380.7 456.6 377.1 459.1Q373.6 461.5 365.2 461.5Q359.0 461.5 355.5 460.1Q352.1 458.7 350.6 456.5Q349.1 454.4 348.8 452.2Q348.5 450.1 348.5 448.6L351.7 449.5Q351.7 449.5 350.2 451.3Q348.7 453.1 345.8 455.4Q342.9 457.8 338.9 459.5Q334.9 461.3 329.6 461.3Z M433.8 461.3Q425.4 461.3 417.6 457.5Q409.9 453.6 403.8 447.0Q397.7 440.4 394.2 431.8Q390.6 423.2 390.6 413.8Q390.6 404.8 394.2 396.4Q397.7 388.0 403.9 381.4Q410.0 374.7 417.8 370.8Q425.6 366.9 433.8 366.9Q442.8 366.9 449.3 370.7Q455.9 374.5 460.2 381.1Q464.5 387.6 466.6 396.0Q468.8 404.5 469.0 413.4Q469.1 422.6 467.1 431.1Q465.0 439.6 460.7 446.4Q456.4 453.3 449.8 457.3Q443.1 461.3 433.8 461.3Z M438.3 427.6Q441.8 427.6 444.8 425.8Q447.8 423.9 449.7 420.8Q451.6 417.7 451.6 414.2Q451.6 410.4 449.8 407.5Q448.0 404.5 445.0 402.6Q442.0 400.7 438.1 400.7Q434.4 400.7 431.3 402.5Q428.2 404.3 426.4 407.4Q424.6 410.4 424.6 414.2Q424.6 417.7 426.5 420.8Q428.4 423.9 431.6 425.8Q434.7 427.6 438.3 427.6Z M469.0 461.5Q461.5 461.5 457.7 459.3Q454.0 457.0 452.7 452.1L452.7 340.9Q452.7 336.8 453.1 332.8Q453.6 328.9 457.0 326.4Q460.3 323.9 468.8 323.9Q477.4 323.9 480.8 326.3Q484.3 328.7 485.0 332.6Q485.8 336.4 485.8 340.7L485.8 444.5Q485.8 448.6 485.0 452.5Q484.3 456.4 480.8 459.0Q477.4 461.5 469.0 461.5Z M526.7 500.0Q517.6 495.9 516.1 490.9Q514.6 486.0 518.5 478.0L563.9 376.2Q567.9 367.4 572.4 365.8Q576.9 364.1 586.2 367.8Q595.2 371.9 596.8 376.6Q598.4 381.3 594.8 389.1L549.0 491.8Q545.2 500.6 540.7 502.4Q536.1 504.1 526.7 500.0Z M541.9 458.9L497.4 391.6Q492.5 384.1 493.4 379.1Q494.4 374.2 502.4 369.1Q511.2 363.7 516.0 364.9Q520.8 366.1 525.8 373.8L556.1 419.6Z M649.8 463.6Q638.4 463.6 630.4 460.7Q622.5 457.9 617.4 454.1Q612.4 450.3 609.8 447.1Q607.1 443.9 606.6 443.2Q602.8 438.5 602.0 434.8Q601.2 431.0 603.1 427.3Q605.1 423.5 609.8 419.0Q614.1 414.9 618.2 414.5Q622.3 414.0 626.3 416.2Q630.3 418.5 634.1 422.8Q638.6 427.8 641.7 429.6Q644.9 431.4 649.0 431.4Q654.1 431.4 657.3 430.2Q660.4 429.0 661.9 426.4Q663.4 423.9 663.4 420.0Q663.4 416.8 660.3 415.0Q657.1 413.2 651.9 411.9Q646.8 410.6 640.4 409.0Q634.1 407.5 627.9 404.8Q624.2 403.3 620.6 401.1Q617.1 398.9 614.0 396.0Q610.9 393.1 608.6 389.0Q606.4 385.0 605.2 380.0Q604.0 374.9 604.0 368.6Q604.0 357.1 609.7 348.2Q615.4 339.2 625.4 334.0Q635.4 328.7 648.1 328.7Q657.3 328.7 663.8 330.2Q670.4 331.7 674.6 333.8Q678.8 335.8 681.0 337.6Q683.3 339.4 683.8 339.9Q690.0 345.6 690.5 349.6Q691.1 353.6 686.1 361.1Q680.4 369.1 675.0 370.1Q669.6 371.2 662.5 366.7Q661.0 365.6 659.5 364.2Q658.0 362.8 655.5 361.7Q653.0 360.7 647.9 360.7Q646.0 360.7 644.2 361.4Q642.3 362.0 641.0 363.0Q639.7 364.1 638.8 365.6Q638.0 367.1 638.0 368.7Q638.0 372.7 641.0 374.8Q644.0 377.0 648.9 378.1Q653.9 379.2 659.9 380.3Q665.9 381.5 672.0 383.3Q677.1 385.0 681.8 387.6Q686.4 390.2 690.0 394.4Q693.5 398.5 695.7 404.6Q697.8 410.6 697.8 419.4Q697.8 431.6 693.2 440.1Q688.5 448.6 681.1 453.7Q673.7 458.9 665.4 461.2Q657.1 463.6 649.8 463.6Z M756.6 459.4Q747.4 459.4 740.7 455.7Q733.9 452.0 729.6 445.5Q725.3 439.1 723.3 430.8Q721.2 422.6 721.4 413.4Q721.6 404.5 723.7 396.0Q725.9 387.6 730.2 381.1Q734.5 374.5 741.0 370.7Q747.6 366.9 756.6 366.9Q764.8 366.9 772.5 370.8Q780.3 374.7 786.5 381.4Q792.6 388.0 796.2 396.4Q799.8 404.8 799.8 413.8Q799.8 423.2 796.2 431.5Q792.6 439.8 786.6 446.1Q780.5 452.3 772.7 455.9Q765.0 459.4 756.6 459.4Z M722.0 501.3Q713.7 501.3 710.2 498.9Q706.6 496.5 706.0 492.7Q705.3 489.0 705.3 484.9L705.3 383.3Q705.3 379.2 706.0 375.5Q706.6 371.7 710.1 369.2Q713.5 366.7 721.8 366.7Q728.3 366.7 732.6 368.5Q736.9 370.2 738.8 374.0L738.8 484.7Q739.2 488.8 738.3 492.6Q737.5 496.5 733.9 498.9Q730.4 501.3 722.0 501.3Z M752.1 427.6Q755.8 427.6 758.9 425.8Q762.0 423.9 763.9 420.8Q765.7 417.7 765.7 414.2Q765.7 410.4 763.9 407.4Q762.2 404.3 759.1 402.5Q756.0 400.7 752.3 400.7Q748.5 400.7 745.4 402.6Q742.3 404.5 740.6 407.5Q738.8 410.4 738.8 414.2Q738.8 417.7 740.7 420.8Q742.5 423.9 745.5 425.8Q748.5 427.6 752.1 427.6Z M883.2 461.3Q874.7 461.3 870.7 458.5Q866.7 455.7 866.9 452.1L869.5 452.1Q868.6 453.5 865.9 455.6Q863.1 457.8 858.7 459.5Q854.2 461.3 847.6 461.3Q839.2 461.3 831.5 457.5Q823.7 453.6 817.6 446.9Q811.5 440.2 808.0 431.7Q804.4 423.2 804.4 413.8Q804.4 404.6 808.0 396.2Q811.5 387.8 817.7 381.2Q823.9 374.5 831.5 370.7Q839.2 366.9 847.6 366.9Q854.0 366.9 858.4 368.7Q862.8 370.6 865.5 372.9Q868.2 375.1 869.1 376.6L867.1 376.6Q866.9 371.9 870.9 369.3Q874.9 366.7 883.3 366.7Q891.8 366.7 895.2 369.2Q898.7 371.7 899.4 375.7Q900.2 379.6 900.2 383.7L900.2 444.5Q900.2 448.6 899.4 452.5Q898.7 456.4 895.2 458.9Q891.8 461.3 883.2 461.3Z M852.3 427.5Q855.9 427.5 858.8 425.6Q861.7 423.7 863.4 420.6Q865.2 417.6 865.2 414.0Q865.2 410.3 863.4 407.3Q861.7 404.3 858.7 402.4Q855.7 400.5 851.9 400.5Q848.2 400.5 845.1 402.4Q842.0 404.3 840.1 407.4Q838.3 410.4 838.3 414.2Q838.3 417.7 840.2 420.7Q842.2 423.7 845.4 425.6Q848.6 427.5 852.3 427.5Z M959.5 462.6Q951.8 462.6 943.3 459.5Q934.8 456.4 927.3 450.4Q919.8 444.3 915.1 435.1Q910.5 426.0 910.5 413.8Q910.5 401.8 915.1 392.8Q919.8 383.7 927.2 377.7Q934.6 371.7 943.1 368.7Q951.6 365.6 959.1 365.6Q966.2 365.6 971.4 367.1Q976.7 368.6 980.0 370.3Q983.4 372.1 984.9 373.0Q988.6 375.3 991.9 378.2Q995.2 381.1 995.2 385.9Q995.2 388.4 994.2 390.9Q993.3 393.4 991.2 396.6Q984.5 406.9 977.8 406.9Q974.8 406.9 972.5 405.9Q970.3 404.8 968.4 403.5Q966.6 402.2 964.4 401.2Q962.3 400.2 959.1 400.2Q955.3 400.2 952.2 402.0Q949.0 403.9 947.1 407.0Q945.2 410.1 945.2 414.0Q945.2 417.9 947.1 421.1Q949.0 424.3 952.1 426.2Q955.2 428.0 958.7 428.0Q961.3 428.0 963.1 427.5Q964.9 426.9 965.8 426.2Q966.7 425.6 966.9 425.6Q969.6 424.1 971.9 422.8Q974.2 421.5 976.7 421.5Q979.8 421.5 983.2 423.8Q986.6 426.2 990.7 431.4Q994.6 436.3 995.1 440.5Q995.5 444.7 992.9 448.3Q990.3 452.0 984.9 455.3Q984.3 455.7 981.1 457.5Q977.8 459.3 972.4 460.9Q966.9 462.6 959.5 462.6Z M1053.7 463.7Q1039.7 463.7 1030.0 459.2Q1020.2 454.6 1014.2 447.2Q1008.3 439.8 1005.5 431.2Q1002.6 422.6 1002.6 414.6Q1002.6 399.8 1009.2 388.6Q1015.7 377.3 1027.3 371.0Q1038.9 364.6 1053.9 364.6Q1065.5 364.6 1073.7 368.4Q1081.9 372.1 1087.1 377.9Q1092.2 383.7 1094.7 390.2Q1097.1 396.8 1097.1 402.4Q1097.1 413.1 1091.8 418.7Q1086.6 424.3 1078.4 424.3L1038.6 424.3Q1039.3 427.3 1041.6 429.4Q1044.0 431.6 1047.5 432.8Q1051.1 434.0 1055.2 434.0Q1059.3 434.0 1062.5 433.5Q1065.7 433.1 1068.0 432.3Q1070.3 431.6 1072.3 430.8Q1074.3 430.1 1075.9 429.6Q1077.4 429.1 1078.9 429.1Q1082.3 429.1 1085.1 431.4Q1087.9 433.6 1090.2 438.1Q1091.5 440.6 1092.0 442.7Q1092.6 444.9 1092.6 446.7Q1092.6 452.3 1088.0 456.1Q1083.4 459.8 1074.8 461.8Q1066.2 463.7 1053.7 463.7Z M1038.6 406.7L1059.5 406.7Q1062.1 406.7 1063.3 405.6Q1064.5 404.5 1064.5 402.2Q1064.5 399.8 1063.1 398.1Q1061.7 396.4 1059.3 395.6Q1056.9 394.7 1053.5 394.7Q1049.0 394.7 1045.7 396.5Q1042.3 398.3 1040.5 401.0Q1038.7 403.7 1038.6 406.7Z" fill="#4f5bd5"/>

  <!-- bunny -->
  <g transform="translate(375 10) scale(1.5 1.4)" stroke-linecap="round" stroke-linejoin="round">
    <!-- head, ears and tucked arms as one outline -->
    <path d="M128 205 C132 215 118 224 106 217 C94 209 98 194 112 190 C92 184 74 168 70 148 C66 126 76 106 96 96 C72 72 70 30 90 18 C108 8 126 26 132 56 C135 70 138 80 150 90 C162 80 165 70 168 56 C174 26 192 8 210 18 C230 30 228 72 204 96 C224 106 234 126 230 148 C226 168 208 184 188 190 C202 194 206 209 194 217 C182 224 168 215 172 205" fill="#f7f8fc" stroke="#4f5bd5" stroke-width="9"/>
    <!-- inner ears -->
    <ellipse cx="106" cy="58" rx="11" ry="24" transform="rotate(-12 106 58)" fill="#e8749a"/>
    <ellipse cx="194" cy="58" rx="11" ry="24" transform="rotate(12 194 58)" fill="#e8749a"/>
    <!-- happy closed eyes -->
    <path d="M110 134 Q120 122 130 134" fill="none" stroke="#4f5bd5" stroke-width="5"/>
    <path d="M170 134 Q180 122 190 134" fill="none" stroke="#4f5bd5" stroke-width="5"/>
    <!-- blush -->
    <circle cx="98" cy="148" r="9" fill="#e8749a"/>
    <circle cx="202" cy="148" r="9" fill="#e8749a"/>
    <!-- nose + mouth -->
    <path d="M145 140 Q150 136 155 140 Q153 145 150 146 Q147 145 145 140Z" fill="#4f5bd5" stroke="#4f5bd5" stroke-width="2"/>
    <path d="M150 147 V150 M150 150 Q143 157 136 150 M150 150 Q157 157 164 150" fill="none" stroke="#4f5bd5" stroke-width="4"/>
    <!-- heart + sparkle -->
    <use href="#heart" transform="translate(40 108) scale(1.5)" fill="#4f5bd5"/>
    <use href="#spark" transform="translate(258 112) scale(14)" fill="#4f5bd5"/>
  </g>

  <circle cx="70" cy="640" r="6" fill="#4f5bd5" opacity="0.7"/>
  <text x="600" y="590" text-anchor="middle" font-family="Nunito, Quicksand, 'Arial Rounded MT Bold', 'Trebuchet MS', sans-serif" font-weight="700" font-size="30" letter-spacing="5" fill="#4f5bd5" opacity="0.8">where studying finally clicks</text>
</svg>
